<svg xmlns="http://www.w3.org/2000/svg" width="760.825" height="105.942" viewBox="0.501 0.498 760.825 105.942" style="enable-background:new .501 .498 760.825 105.942" xml:space="preserve"><path style="fill:#0dadea" d="M-177.77 123.629 722.723-.149v868.978h-900.434l-.059-745.2zm900.493 856.407v859.14l-900.371-123.596-.062-735.504h900.434v-.04zm99.609-993.848 1198.23-164.707V868.828H822.332v-882.64zm1198.23 993.848v1037.368l-1198.23-164.565V980.036h1198.23z" transform="matrix(.04825 0 0 .04825 9.077 9.11)"/><path style="fill:#00adef" d="M-1640.247-184.778h-2.324v-9.139c0-.749.046-1.664.138-2.748h-.039c-.145.617-.273 1.06-.384 1.33l-4.215 10.557h-1.615l-4.225-10.478c-.118-.308-.243-.778-.374-1.408h-.039c.053.565.079 1.487.079 2.767v9.119h-2.167V-198.9h3.299l3.713 9.405c.282.722.466 1.261.551 1.615h.049c.243-.742.44-1.294.591-1.655l3.782-9.365h3.181l-.001 14.122zM-1635.884-196.98c-.374 0-.695-.121-.96-.364-.266-.243-.399-.552-.399-.926s.133-.686.399-.936c.266-.249.586-.374.96-.374.387 0 .716.125.985.374.269.25.404.561.404.936 0 .354-.135.658-.404.911-.27.253-.598.379-.985.379zm1.132 12.202h-2.284v-10.085h2.284v10.085zM-1624.539-185.241c-.807.466-1.763.699-2.866.699-1.497 0-2.705-.468-3.624-1.403s-1.379-2.148-1.379-3.639c0-1.661.494-2.995 1.482-4.003s2.309-1.512 3.964-1.512c.919 0 1.73.161 2.432.483v2.127c-.703-.525-1.451-.788-2.245-.788-.965 0-1.756.327-2.373.98-.617.653-.926 1.508-.926 2.565 0 1.044.29 1.868.871 2.472.581.604 1.361.906 2.339.906.821 0 1.595-.292 2.324-.876l.001 1.989zM-1616.415-192.686c-.276-.217-.673-.325-1.192-.325-.676 0-1.241.305-1.694.916-.453.61-.68 1.441-.68 2.491v4.826h-2.285v-10.085h2.285v2.078h.039c.223-.709.566-1.262 1.029-1.659.463-.397.98-.596 1.551-.596.414 0 .729.063.946.187l.001 2.167zM-1610.309-184.542c-1.556 0-2.798-.471-3.728-1.413-.929-.942-1.394-2.191-1.394-3.747 0-1.694.484-3.017 1.453-3.969.969-.952 2.273-1.428 3.915-1.428 1.576 0 2.803.463 3.683 1.389.88.926 1.319 2.209 1.319 3.85 0 1.609-.474 2.897-1.423 3.865-.948.969-2.223 1.453-3.825 1.453zm.108-8.735c-.893 0-1.599.312-2.117.935-.519.624-.778 1.484-.778 2.58 0 1.057.263 1.889.788 2.496s1.228.911 2.108.911c.9 0 1.591-.299 2.073-.896.482-.598.724-1.448.724-2.551 0-1.109-.241-1.966-.724-2.57-.483-.603-1.174-.905-2.074-.905zM-1603.356-185.093v-2.117c.854.65 1.796.975 2.826.975 1.379 0 2.068-.407 2.068-1.221a.963.963 0 0 0-.177-.586c-.118-.161-.277-.304-.478-.428s-.437-.236-.709-.335c-.273-.099-.576-.21-.911-.335a9.603 9.603 0 0 1-1.118-.522 3.373 3.373 0 0 1-.827-.625 2.344 2.344 0 0 1-.497-.793 2.909 2.909 0 0 1-.167-1.034c0-.486.115-.914.345-1.285.23-.371.538-.683.925-.935a4.435 4.435 0 0 1 1.32-.571 6.038 6.038 0 0 1 1.526-.192c.932 0 1.766.141 2.501.423v1.999c-.709-.486-1.523-.729-2.442-.729-.289 0-.55.03-.783.088a2.02 2.02 0 0 0-.596.246 1.21 1.21 0 0 0-.384.379.904.904 0 0 0-.138.487c0 .217.046.401.138.552.092.151.228.284.409.399.18.115.397.22.65.315s.543.199.872.31c.433.177.822.358 1.167.542.345.184.639.392.882.625.243.233.43.502.561.808.131.305.197.668.197 1.088 0 .512-.118.958-.355 1.339a2.951 2.951 0 0 1-.945.945c-.394.25-.849.435-1.364.556a7.062 7.062 0 0 1-1.63.182c-1.104.001-2.059-.182-2.866-.55zM-1589.549-184.542c-1.556 0-2.799-.471-3.728-1.413-.929-.942-1.393-2.191-1.393-3.747 0-1.694.484-3.017 1.453-3.969.968-.952 2.273-1.428 3.914-1.428 1.576 0 2.803.463 3.683 1.389.88.926 1.32 2.209 1.32 3.85 0 1.609-.474 2.897-1.423 3.865-.949.969-2.225 1.453-3.826 1.453zm.108-8.735c-.893 0-1.599.312-2.118.935-.519.624-.778 1.484-.778 2.58 0 1.057.263 1.889.788 2.496s1.228.911 2.108.911c.899 0 1.59-.299 2.073-.896.483-.598.724-1.448.724-2.551 0-1.109-.241-1.966-.724-2.57-.483-.603-1.174-.905-2.073-.905zM-1576.264-197.846a2.08 2.08 0 0 0-1.054-.266c-1.11 0-1.664.627-1.664 1.881v1.369h2.344v1.792h-2.334v8.292h-2.285v-8.292h-1.723v-1.792h1.723v-1.635c0-1.064.348-1.902 1.044-2.516.696-.614 1.566-.921 2.61-.921.565 0 1.011.062 1.339.187v1.901zM-1569.676-184.886c-.446.223-1.034.335-1.763.335-1.956 0-2.934-.939-2.934-2.816v-5.702h-1.684v-1.792h1.684v-2.334l2.285-.65v2.984h2.413v1.792h-2.413v5.042c0 .597.108 1.024.325 1.28.217.256.578.384 1.083.384.387 0 .722-.111 1.004-.335v1.812zM-1550.295-184.778h-2.57l-1.27-3.595h-5.554l-1.221 3.595h-2.561l5.288-14.122h2.639l5.249 14.122zm-4.461-5.505-1.959-5.633a6.586 6.586 0 0 1-.187-.886h-.039c-.059.374-.125.67-.197.886l-1.94 5.633h4.322zM-1541.156-193.907l-5.446 7.346h5.426v1.783h-8.627v-.857l5.564-7.445h-5.032v-1.783h8.115v.956zM-1530.432-184.778h-2.284v-1.596h-.039c-.663 1.221-1.694 1.832-3.092 1.832-2.383 0-3.575-1.431-3.575-4.294v-6.027h2.285v5.791c0 1.812.699 2.718 2.098 2.718.676 0 1.232-.249 1.669-.748.437-.499.655-1.152.655-1.96v-5.801h2.285l-.002 10.085zM-1521.598-192.686c-.276-.217-.673-.325-1.192-.325-.676 0-1.241.305-1.694.916-.453.61-.68 1.441-.68 2.491v4.826h-2.284v-10.085h2.284v2.078h.039c.223-.709.566-1.262 1.029-1.659.463-.397.98-.596 1.551-.596.413 0 .729.063.945.187l.002 2.167zM-1511.425-189.2h-6.874c.026.932.313 1.651.862 2.157.548.505 1.301.758 2.26.758 1.077 0 2.065-.322 2.964-.965v1.841c-.919.578-2.134.867-3.644.867-1.484 0-2.647-.458-3.491-1.374-.844-.916-1.265-2.204-1.265-3.865 0-1.569.464-2.848 1.394-3.836.929-.988 2.083-1.482 3.462-1.482s2.445.443 3.2 1.329c.755.886 1.133 2.117 1.133 3.693l-.001.877zm-2.206-1.615c-.01-.821-.2-1.459-.581-1.915-.381-.456-.906-.684-1.576-.684-.656 0-1.213.24-1.669.719s-.737 1.106-.842 1.881h4.668z" transform="matrix(4.32093 0 0 4.249 7292.087 869.908)"/></svg>